# xmcd
#
# Track frame offsets: 
#        150
#        14147
#        28730
#        45477
#        62252
#        84105
#        103372
#        117940
#        134670
#        157470
#
# Disc length: 2323 seconds
#
# Revision: 2
# Processed by: cddbd v1.5PL3 Copyright (c) Steve Scherf et al.
# Submitted via: ExactAudioCopy v0.95a5
#
DISCID=8909110a
DTITLE=Trisha Yearwood - Everybody Knows
DYEAR=1996
DGENRE=Country
TTITLE0=I Want To Live Again
TTITLE1=It's Alright
TTITLE2=Believe Me Baby (I Lied)
TTITLE3=I Need You
TTITLE4=Little Hercules
TTITLE5=Under The Rainbow
TTITLE6=Everybody Knows
TTITLE7=Hello, I'm Gone
TTITLE8=Maybe It's Love
TTITLE9=A Lover Is Forever
EXTD=
EXTT0=
EXTT1=
EXTT2=
EXTT3=
EXTT4=
EXTT5=
EXTT6=
EXTT7=
EXTT8=
EXTT9=
PLAYORDER=
